<mxfile host="app.diagrams.net" modified="2023-12-11T20:23:01.974Z" agent="Mozilla/5.0 (Windows NT 10.0; Win64; x64) AppleWebKit/537.36 (KHTML, like Gecko) Chrome/120.0.0.0 Safari/537.36 Edg/120.0.0.0" etag="pOdq5NornlDZ9e71w1p_" version="22.1.7" type="device">
  <diagram name="PÃ¡gina-1" id="m-Ln0tRN5WxjfX_Kr41t">
    <mxGraphModel dx="1046" dy="1782" grid="1" gridSize="10" guides="1" tooltips="1" connect="1" arrows="1" fold="1" page="1" pageScale="1" pageWidth="827" pageHeight="1169" math="0" shadow="0">
      <root>
        <mxCell id="0" />
        <mxCell id="1" parent="0" />
        <mxCell id="ffhu-G3uPTraWFk-8T8m-1" value="" style="rounded=0;whiteSpace=wrap;html=1;fillColor=#f8cecc;strokeColor=#b85450;" parent="1" vertex="1">
          <mxGeometry x="40" y="180" width="570" height="180" as="geometry" />
        </mxCell>
        <mxCell id="ffhu-G3uPTraWFk-8T8m-2" value="AccountEntity" style="rounded=0;whiteSpace=wrap;html=1;" parent="1" vertex="1">
          <mxGeometry x="460" y="255" width="110" height="50" as="geometry" />
        </mxCell>
        <mxCell id="ffhu-G3uPTraWFk-8T8m-5" style="edgeStyle=orthogonalEdgeStyle;rounded=0;orthogonalLoop=1;jettySize=auto;html=1;entryX=0;entryY=0.5;entryDx=0;entryDy=0;" parent="1" source="ffhu-G3uPTraWFk-8T8m-3" target="ffhu-G3uPTraWFk-8T8m-2" edge="1">
          <mxGeometry relative="1" as="geometry" />
        </mxCell>
        <mxCell id="Z5EB2WJSBhOtMbeMM_Wo-2" style="edgeStyle=orthogonalEdgeStyle;rounded=0;orthogonalLoop=1;jettySize=auto;html=1;" edge="1" parent="1" source="ffhu-G3uPTraWFk-8T8m-3" target="Z5EB2WJSBhOtMbeMM_Wo-1">
          <mxGeometry relative="1" as="geometry" />
        </mxCell>
        <mxCell id="ffhu-G3uPTraWFk-8T8m-3" value="Authentication" style="rounded=1;whiteSpace=wrap;html=1;dashed=1;" parent="1" vertex="1">
          <mxGeometry x="270" y="255" width="120" height="50" as="geometry" />
        </mxCell>
        <mxCell id="ffhu-G3uPTraWFk-8T8m-6" value="" style="rounded=0;whiteSpace=wrap;html=1;fillColor=#ffe6cc;strokeColor=#d79b00;" parent="1" vertex="1">
          <mxGeometry x="25" y="-70" width="595" height="180" as="geometry" />
        </mxCell>
        <mxCell id="Z5EB2WJSBhOtMbeMM_Wo-3" style="edgeStyle=orthogonalEdgeStyle;rounded=0;orthogonalLoop=1;jettySize=auto;html=1;" edge="1" parent="1" source="ffhu-G3uPTraWFk-8T8m-9" target="ffhu-G3uPTraWFk-8T8m-3">
          <mxGeometry relative="1" as="geometry" />
        </mxCell>
        <mxCell id="Z5EB2WJSBhOtMbeMM_Wo-4" style="edgeStyle=orthogonalEdgeStyle;rounded=0;orthogonalLoop=1;jettySize=auto;html=1;" edge="1" parent="1" source="ffhu-G3uPTraWFk-8T8m-9" target="naj7oIM4HX3QOAGwrgyO-3">
          <mxGeometry relative="1" as="geometry" />
        </mxCell>
        <mxCell id="Z5EB2WJSBhOtMbeMM_Wo-6" style="edgeStyle=orthogonalEdgeStyle;rounded=0;orthogonalLoop=1;jettySize=auto;html=1;" edge="1" parent="1" source="ffhu-G3uPTraWFk-8T8m-9" target="Z5EB2WJSBhOtMbeMM_Wo-5">
          <mxGeometry relative="1" as="geometry" />
        </mxCell>
        <mxCell id="Z5EB2WJSBhOtMbeMM_Wo-8" style="edgeStyle=orthogonalEdgeStyle;rounded=0;orthogonalLoop=1;jettySize=auto;html=1;" edge="1" parent="1" source="ffhu-G3uPTraWFk-8T8m-9" target="Z5EB2WJSBhOtMbeMM_Wo-7">
          <mxGeometry relative="1" as="geometry" />
        </mxCell>
        <mxCell id="Z5EB2WJSBhOtMbeMM_Wo-11" style="edgeStyle=orthogonalEdgeStyle;rounded=0;orthogonalLoop=1;jettySize=auto;html=1;exitX=0.25;exitY=1;exitDx=0;exitDy=0;entryX=0.75;entryY=0;entryDx=0;entryDy=0;dashed=1;" edge="1" parent="1" source="ffhu-G3uPTraWFk-8T8m-9" target="Z5EB2WJSBhOtMbeMM_Wo-1">
          <mxGeometry relative="1" as="geometry">
            <Array as="points">
              <mxPoint x="294" y="170" />
              <mxPoint x="178" y="170" />
            </Array>
          </mxGeometry>
        </mxCell>
        <mxCell id="Z5EB2WJSBhOtMbeMM_Wo-14" style="edgeStyle=orthogonalEdgeStyle;rounded=0;orthogonalLoop=1;jettySize=auto;html=1;exitX=0.75;exitY=1;exitDx=0;exitDy=0;entryX=0.25;entryY=0;entryDx=0;entryDy=0;dashed=1;" edge="1" parent="1" source="ffhu-G3uPTraWFk-8T8m-9" target="ffhu-G3uPTraWFk-8T8m-2">
          <mxGeometry relative="1" as="geometry" />
        </mxCell>
        <mxCell id="ffhu-G3uPTraWFk-8T8m-9" value="RemoteAuthentication" style="rounded=1;whiteSpace=wrap;html=1;" parent="1" vertex="1">
          <mxGeometry x="257.5" y="30" width="145" height="50" as="geometry" />
        </mxCell>
        <mxCell id="ffhu-G3uPTraWFk-8T8m-10" value="Domain" style="text;html=1;align=center;verticalAlign=middle;resizable=0;points=[];autosize=1;strokeColor=none;fillColor=none;" parent="1" vertex="1">
          <mxGeometry x="550" y="160" width="60" height="30" as="geometry" />
        </mxCell>
        <mxCell id="ffhu-G3uPTraWFk-8T8m-11" value="Data" style="text;html=1;align=center;verticalAlign=middle;resizable=0;points=[];autosize=1;strokeColor=none;fillColor=none;" parent="1" vertex="1">
          <mxGeometry x="560" y="-93" width="50" height="30" as="geometry" />
        </mxCell>
        <mxCell id="naj7oIM4HX3QOAGwrgyO-3" value="HttpClient" style="rounded=1;whiteSpace=wrap;html=1;dashed=1;" parent="1" vertex="1">
          <mxGeometry x="270" y="-50" width="120" height="50" as="geometry" />
        </mxCell>
        <mxCell id="Z5EB2WJSBhOtMbeMM_Wo-1" value="AuthenticationParams" style="rounded=0;whiteSpace=wrap;html=1;" vertex="1" parent="1">
          <mxGeometry x="80" y="255" width="130" height="50" as="geometry" />
        </mxCell>
        <mxCell id="Z5EB2WJSBhOtMbeMM_Wo-12" style="edgeStyle=orthogonalEdgeStyle;rounded=0;orthogonalLoop=1;jettySize=auto;html=1;" edge="1" parent="1" source="Z5EB2WJSBhOtMbeMM_Wo-5" target="ffhu-G3uPTraWFk-8T8m-2">
          <mxGeometry relative="1" as="geometry" />
        </mxCell>
        <mxCell id="Z5EB2WJSBhOtMbeMM_Wo-5" value="RemoteAccountModel" style="rounded=0;whiteSpace=wrap;html=1;" vertex="1" parent="1">
          <mxGeometry x="454" y="30" width="140" height="50" as="geometry" />
        </mxCell>
        <mxCell id="Z5EB2WJSBhOtMbeMM_Wo-13" style="edgeStyle=orthogonalEdgeStyle;rounded=0;orthogonalLoop=1;jettySize=auto;html=1;" edge="1" parent="1" source="Z5EB2WJSBhOtMbeMM_Wo-7" target="Z5EB2WJSBhOtMbeMM_Wo-1">
          <mxGeometry relative="1" as="geometry" />
        </mxCell>
        <mxCell id="Z5EB2WJSBhOtMbeMM_Wo-7" value="RemoteAuthenticationParams" style="rounded=0;whiteSpace=wrap;html=1;" vertex="1" parent="1">
          <mxGeometry x="40" y="30" width="185" height="50" as="geometry" />
        </mxCell>
        <mxCell id="Z5EB2WJSBhOtMbeMM_Wo-15" value="" style="rounded=0;whiteSpace=wrap;html=1;fillColor=#dae8fc;strokeColor=#6c8ebf;" vertex="1" parent="1">
          <mxGeometry x="30" y="-290" width="590" height="150" as="geometry" />
        </mxCell>
        <mxCell id="Z5EB2WJSBhOtMbeMM_Wo-16" value="Infra" style="text;html=1;align=center;verticalAlign=middle;resizable=0;points=[];autosize=1;strokeColor=none;fillColor=none;" vertex="1" parent="1">
          <mxGeometry x="560" y="-320" width="50" height="30" as="geometry" />
        </mxCell>
        <mxCell id="Z5EB2WJSBhOtMbeMM_Wo-18" style="edgeStyle=orthogonalEdgeStyle;rounded=0;orthogonalLoop=1;jettySize=auto;html=1;" edge="1" parent="1" source="Z5EB2WJSBhOtMbeMM_Wo-17" target="naj7oIM4HX3QOAGwrgyO-3">
          <mxGeometry relative="1" as="geometry" />
        </mxCell>
        <mxCell id="Z5EB2WJSBhOtMbeMM_Wo-21" value="" style="edgeStyle=orthogonalEdgeStyle;rounded=0;orthogonalLoop=1;jettySize=auto;html=1;" edge="1" parent="1" source="Z5EB2WJSBhOtMbeMM_Wo-17" target="Z5EB2WJSBhOtMbeMM_Wo-20">
          <mxGeometry relative="1" as="geometry" />
        </mxCell>
        <mxCell id="Z5EB2WJSBhOtMbeMM_Wo-17" value="HttpAdapter" style="rounded=0;whiteSpace=wrap;html=1;" vertex="1" parent="1">
          <mxGeometry x="270" y="-260" width="120" height="60" as="geometry" />
        </mxCell>
        <mxCell id="Z5EB2WJSBhOtMbeMM_Wo-20" value="Http" style="rounded=0;whiteSpace=wrap;html=1;" vertex="1" parent="1">
          <mxGeometry x="270" y="-400" width="120" height="60" as="geometry" />
        </mxCell>
      </root>
    </mxGraphModel>
  </diagram>
</mxfile>
